<svg width="300" height="376" viewBox="0 0 300 376" fill="none" xmlns="http://www.w3.org/2000/svg">
<rect width="300" height="376" rx="28" fill="#F0F0F0"/>
<path d="M74.5457 53.18V54.706H86.2777V53.18H74.5457ZM75.7777 44.122V51.038H85.0037V44.122H83.1557V46.222H77.6257V44.122H75.7777ZM77.6257 47.664H83.1557V49.568H77.6257V47.664ZM87.4106 50.45V51.934H99.1566V50.45H87.4106ZM88.8806 54.846V56.33H98.0226V54.846H88.8806ZM88.8806 52.578V55.294H90.7426V52.578H88.8806ZM92.3526 48.658V51.108H94.2146V48.658H92.3526ZM88.8526 43.562V44.976H95.8946V45.844H88.8666V48.504H90.7146V47.16H97.7286V43.562H88.8526ZM88.8666 48.07V49.47H97.9806V48.07H88.8666ZM100.303 53.18V54.692H112.035V53.18H100.303ZM105.175 45.074V45.816C105.175 47.608 103.635 49.386 100.751 49.834L101.479 51.318C104.783 50.716 106.743 48.532 106.743 45.816V45.074H105.175ZM105.553 45.074V45.816C105.553 48.532 107.541 50.66 110.901 51.248L111.615 49.764C108.661 49.33 107.121 47.608 107.121 45.816V45.074H105.553ZM101.269 44.36V45.844H111.027V44.36H101.269ZM113.882 55H115.954V44.64H113.882V55ZM118.503 55H120.575V44.64H118.503V55ZM123.125 55H125.197V44.64H123.125V55Z" fill="#995C5C"/>
<path d="M135.118 43.492V43.884C135.118 45.242 133.69 46.74 130.778 47.09L131.464 48.546C134.796 48.084 136.714 46.194 136.714 43.884V43.492H135.118ZM135.426 43.492V43.884C135.426 46.18 137.344 48.084 140.676 48.546L141.348 47.09C138.45 46.74 137.022 45.242 137.022 43.884V43.492H135.426ZM130.204 49.232V50.702H141.922V49.232H130.204ZM136.042 51.556C133.228 51.556 131.534 52.41 131.534 53.908C131.534 55.42 133.228 56.26 136.042 56.26C138.842 56.26 140.536 55.42 140.536 53.908C140.536 52.41 138.842 51.556 136.042 51.556ZM136.042 52.956C137.778 52.956 138.66 53.264 138.66 53.908C138.66 54.566 137.778 54.86 136.042 54.86C134.306 54.86 133.424 54.566 133.424 53.908C133.424 53.264 134.306 52.956 136.042 52.956ZM144.482 50.66V56.106H153.414V50.66H151.566V52.018H146.316V50.66H144.482ZM146.316 53.446H151.566V54.622H146.316V53.446ZM144.524 43.8V45.284H152.742V43.8H144.524ZM143.096 48.336V49.834H154.828V48.336H143.096ZM151.622 43.8V44.836C151.622 45.928 151.622 47.118 151.216 48.784L153.092 48.658C153.456 47.034 153.456 45.914 153.456 44.836V43.8H151.622ZM161.827 43.464C158.859 43.464 157.137 44.248 157.137 45.676C157.137 47.104 158.859 47.888 161.827 47.888C164.781 47.888 166.517 47.104 166.517 45.676C166.517 44.248 164.781 43.464 161.827 43.464ZM161.827 44.822C163.703 44.822 164.585 45.102 164.585 45.676C164.585 46.278 163.703 46.53 161.827 46.53C159.951 46.53 159.069 46.278 159.069 45.676C159.069 45.102 159.951 44.822 161.827 44.822ZM155.961 48.49V49.96H167.679V48.49H155.961ZM157.305 50.688V52.074H164.431V52.732H157.319V55.168H159.153V54.02H166.265V50.688H157.305ZM157.319 54.762V56.162H166.601V54.762H157.319ZM176.94 50.716V52.62H178.788V50.716H176.94ZM172.012 49.666V51.136H183.73V49.666H172.012ZM173.314 52.242V53.712H180.454V56.232H182.316V52.242H173.314ZM176.94 43.296V45.2H178.788V43.296H176.94ZM176.828 45.34V45.606C176.828 46.6 175.624 47.622 172.502 47.818L173.062 49.204C176.59 48.952 178.466 47.58 178.466 45.606V45.34H176.828ZM177.262 45.34V45.606C177.262 47.58 179.124 48.952 182.666 49.204L183.226 47.818C180.104 47.622 178.9 46.6 178.9 45.606V45.34H177.262ZM173.132 44.458V45.9H182.61V44.458H173.132ZM193.207 43.282V56.246H195.055V43.282H193.207ZM194.635 48.336V49.89H196.931V48.336H194.635ZM184.835 45.2V46.684H192.381V45.2H184.835ZM188.629 47.412C186.739 47.412 185.339 48.7 185.339 50.506C185.339 52.312 186.739 53.6 188.629 53.6C190.519 53.6 191.919 52.312 191.919 50.506C191.919 48.7 190.519 47.412 188.629 47.412ZM188.629 48.924C189.511 48.924 190.141 49.512 190.141 50.506C190.141 51.5 189.511 52.088 188.629 52.088C187.747 52.088 187.117 51.5 187.117 50.506C187.117 49.512 187.747 48.924 188.629 48.924ZM187.691 43.492V45.76H189.553V43.492H187.691ZM199.142 49.26V50.744H208.256V49.26H199.142ZM197.784 53.166V54.692H209.516V53.166H197.784ZM199.142 44.346V49.876H200.99V45.858H208.158V44.346H199.142ZM219.637 43.268V56.274H221.499V43.268H219.637ZM217.509 46.026V47.524H219.945V46.026H217.509ZM211.097 51.864V53.39H212.119C214.093 53.39 215.745 53.348 217.649 53.054L217.495 51.542C215.633 51.822 214.037 51.864 212.119 51.864H211.097ZM211.069 44.36V45.844H215.031V47.916H211.097V52.2H212.945V49.386H216.865V44.36H211.069ZM217.481 49.554V51.052H219.917V49.554H217.481ZM226.118 49.862V53.502H227.966V49.862H226.118ZM230.822 49.862V53.502H232.684V49.862H230.822ZM223.542 53.236V54.748H235.274V53.236H223.542ZM229.394 43.912C226.594 43.912 224.55 45.284 224.55 47.398C224.55 49.512 226.594 50.87 229.394 50.87C232.18 50.87 234.238 49.512 234.238 47.398C234.238 45.284 232.18 43.912 229.394 43.912ZM229.394 45.368C231.2 45.368 232.404 46.11 232.404 47.398C232.404 48.672 231.2 49.428 229.394 49.428C227.588 49.428 226.384 48.672 226.384 47.398C226.384 46.11 227.588 45.368 229.394 45.368ZM237.765 51.472H239.109L239.403 46.306L239.459 44.36H237.401L237.457 46.306L237.765 51.472ZM238.423 55.196C239.165 55.196 239.711 54.622 239.711 53.852C239.711 53.082 239.165 52.522 238.423 52.522C237.695 52.522 237.149 53.082 237.149 53.852C237.149 54.622 237.695 55.196 238.423 55.196ZM47.9806 65.228V66.712H54.1826V65.228H47.9806ZM51.1026 67.286C49.4646 67.286 48.2606 68.56 48.2606 70.38C48.2606 72.186 49.4646 73.46 51.1026 73.46C52.7546 73.46 53.9446 72.186 53.9446 70.38C53.9446 68.56 52.7546 67.286 51.1026 67.286ZM51.1026 68.84C51.8026 68.84 52.3066 69.4 52.3066 70.38C52.3066 71.36 51.8026 71.906 51.1026 71.906C50.4026 71.906 49.9126 71.36 49.9126 70.38C49.9126 69.4 50.4026 68.84 51.1026 68.84ZM57.3606 63.282V76.246H59.1386V63.282H57.3606ZM55.8066 68.546V70.044H57.9486V68.546H55.8066ZM54.6446 63.52V75.7H56.3806V63.52H54.6446ZM50.1926 63.632V66.166H52.0266V63.632H50.1926ZM69.2315 63.282V70.758H71.1075V63.282H69.2315ZM70.5615 66.348V67.86H72.8015V66.348H70.5615ZM66.8515 70.996C64.1775 70.996 62.4555 71.99 62.4555 73.628C62.4555 75.28 64.1775 76.26 66.8515 76.26C69.5115 76.26 71.2335 75.28 71.2335 73.628C71.2335 71.99 69.5115 70.996 66.8515 70.996ZM66.8515 72.48C68.4895 72.48 69.3995 72.844 69.3995 73.628C69.3995 74.398 68.4895 74.776 66.8515 74.776C65.1995 74.776 64.2895 74.398 64.2895 73.628C64.2895 72.844 65.1995 72.48 66.8515 72.48ZM61.3215 68.602V70.086H62.3995C65.3255 70.086 66.8235 70.03 68.4055 69.68L68.2235 68.196C66.6695 68.532 65.2555 68.602 62.3995 68.602H61.3215ZM61.3215 64.15V69.61H63.1695V65.634H67.1175V64.15H61.3215ZM76.9383 69.204V70.716H88.6703V69.204H76.9383ZM78.3523 66.838V68.308H87.3403V66.838H78.3523ZM78.3523 63.632V67.566H80.2003V65.116H87.2703V63.632H78.3523ZM82.7623 71.486C79.9623 71.486 78.2543 72.34 78.2543 73.866C78.2543 75.392 79.9623 76.246 82.7623 76.246C85.5623 76.246 87.2563 75.392 87.2563 73.866C87.2563 72.34 85.5623 71.486 82.7623 71.486ZM82.7623 72.886C84.4983 72.886 85.3803 73.208 85.3803 73.866C85.3803 74.538 84.4983 74.832 82.7623 74.832C81.0263 74.832 80.1443 74.538 80.1443 73.866C80.1443 73.208 81.0263 72.886 82.7623 72.886ZM91.2032 70.66V76.106H100.135V70.66H98.2872V72.018H93.0372V70.66H91.2032ZM93.0372 73.446H98.2872V74.622H93.0372V73.446ZM91.2452 63.8V65.284H99.4632V63.8H91.2452ZM89.8172 68.336V69.834H101.549V68.336H89.8172ZM98.3432 63.8V64.836C98.3432 65.928 98.3432 67.118 97.9372 68.784L99.8132 68.658C100.177 67.034 100.177 65.914 100.177 64.836V63.8H98.3432ZM107.862 68.056V69.554H109.99V68.056H107.862ZM112.048 63.282V76.246H113.826V63.282H112.048ZM109.402 63.478V75.658H111.152V63.478H109.402ZM105.594 64.192C103.886 64.192 102.794 65.97 102.794 68.896C102.794 71.836 103.886 73.614 105.594 73.614C107.316 73.614 108.422 71.836 108.422 68.896C108.422 65.97 107.316 64.192 105.594 64.192ZM105.594 65.942C106.322 65.942 106.728 66.922 106.728 68.896C106.728 70.884 106.322 71.85 105.594 71.85C104.894 71.85 104.488 70.884 104.488 68.896C104.488 66.922 104.894 65.942 105.594 65.942ZM123.661 71.584V76.26H125.509V71.584H123.661ZM118.747 71.038V72.55H130.465V71.038H118.747ZM123.647 65.606V65.914C123.647 67.118 122.261 68.588 119.335 68.924L119.979 70.38C123.409 69.974 125.285 68.084 125.285 65.914V65.606H123.647ZM123.885 65.606V65.914C123.885 68.028 125.761 69.988 129.177 70.38L129.835 68.924C126.923 68.588 125.523 67.09 125.523 65.914V65.606H123.885ZM119.797 64.766V66.236H129.401V64.766H119.797ZM123.661 63.31V65.27H125.509V63.31H123.661ZM134.524 65.816V66.32C134.524 67.888 133.628 69.456 131.528 70.114L132.424 71.57C134.888 70.8 136.036 68.686 136.036 66.32V65.816H134.524ZM134.86 65.816V66.32C134.86 68.588 136.05 70.632 138.5 71.36L139.396 69.904C137.296 69.274 136.386 67.776 136.386 66.32V65.816H134.86ZM131.976 64.808V66.264H138.934V64.808H131.976ZM134.524 63.38V65.354H136.386V63.38H134.524ZM138.528 67.048V68.574H141.538V67.048H138.528ZM140.6 63.296V72.886H142.462V63.296H140.6ZM133.908 74.538V76.022H142.756V74.538H133.908ZM133.908 72.088V75.518H135.77V72.088H133.908ZM145.863 69.26V70.744H154.977V69.26H145.863ZM144.505 73.166V74.692H156.237V73.166H144.505ZM145.863 64.346V69.876H147.711V65.858H154.879V64.346H145.863ZM166.302 63.268V76.274H168.164V63.268H166.302ZM158.07 71.738V73.25H159.218C161.584 73.25 163.488 73.18 165.588 72.802L165.406 71.304C163.348 71.654 161.514 71.738 159.218 71.738H158.07ZM158.056 64.374V65.858H162.27V67.916H158.07V72.298H159.96V69.386H164.174V64.374H158.056ZM179.18 63.268V76.274H181.042V63.268H179.18ZM170.948 71.738V73.25H172.096C174.462 73.25 176.366 73.18 178.466 72.802L178.284 71.304C176.226 71.654 174.392 71.738 172.096 71.738H170.948ZM170.934 64.374V65.858H175.148V67.916H170.948V72.298H172.838V69.386H177.052V64.374H170.934ZM184.583 66.782V68.252H193.571V66.782H184.583ZM183.127 69.596V71.08H194.873V69.596H183.127ZM184.583 63.744V67.51H186.431V63.744H184.583ZM184.457 74.482V75.966H193.641V74.482H184.457ZM184.457 72.116V74.874H186.319V72.116H184.457ZM202.02 63.982V65.13C202.02 66.894 201.138 68.63 198.968 69.358L199.962 70.828C202.426 69.974 203.546 67.706 203.546 65.13V63.982H202.02ZM202.398 63.982V65.312C202.398 67.65 203.504 69.666 205.842 70.45L206.808 69.008C204.778 68.378 203.91 66.866 203.91 65.312V63.982H202.398ZM207.522 63.282V70.94H209.384V63.282H207.522ZM208.866 66.278V67.818H211.106V66.278H208.866ZM205.156 71.234C202.454 71.234 200.76 72.172 200.76 73.74C200.76 75.322 202.454 76.246 205.156 76.246C207.844 76.246 209.538 75.322 209.538 73.74C209.538 72.172 207.844 71.234 205.156 71.234ZM205.156 72.676C206.808 72.676 207.69 73.026 207.69 73.74C207.69 74.468 206.808 74.804 205.156 74.804C203.504 74.804 202.608 74.468 202.608 73.74C202.608 73.026 203.504 72.676 205.156 72.676ZM216.985 70.408V72.382H218.847V70.408H216.985ZM212.057 69.344V70.814H223.775V69.344H212.057ZM213.079 63.632V65.116H222.739V63.632H213.079ZM213.177 67.062V68.546H222.641V67.062H213.177ZM214.731 64.178V68.028H216.593V64.178H214.731ZM219.225 64.178V68.028H221.087V64.178H219.225ZM213.415 71.892V76.106H222.375V71.892H213.415ZM220.555 73.334V74.636H215.249V73.334H220.555ZM233.826 63.268V76.274H235.702V63.268H233.826ZM228.716 64.178C226.756 64.178 225.314 65.97 225.314 68.798C225.314 71.654 226.756 73.446 228.716 73.446C230.676 73.446 232.118 71.654 232.118 68.798C232.118 65.97 230.676 64.178 228.716 64.178ZM228.716 65.872C229.682 65.872 230.326 66.894 230.326 68.798C230.326 70.73 229.682 71.766 228.716 71.766C227.75 71.766 227.092 70.73 227.092 68.798C227.092 66.894 227.75 65.872 228.716 65.872ZM242.995 68.056V69.554H245.123V68.056H242.995ZM247.181 63.282V76.246H248.959V63.282H247.181ZM244.535 63.478V75.658H246.285V63.478H244.535ZM240.727 64.192C239.019 64.192 237.927 65.97 237.927 68.896C237.927 71.836 239.019 73.614 240.727 73.614C242.449 73.614 243.555 71.836 243.555 68.896C243.555 65.97 242.449 64.192 240.727 64.192ZM240.727 65.942C241.455 65.942 241.861 66.922 241.861 68.896C241.861 70.884 241.455 71.85 240.727 71.85C240.027 71.85 239.621 70.884 239.621 68.896C239.621 66.922 240.027 65.942 240.727 65.942ZM253.284 69.862V73.502H255.132V69.862H253.284ZM257.988 69.862V73.502H259.85V69.862H257.988ZM250.708 73.236V74.748H262.44V73.236H250.708ZM256.56 63.912C253.76 63.912 251.716 65.284 251.716 67.398C251.716 69.512 253.76 70.87 256.56 70.87C259.346 70.87 261.404 69.512 261.404 67.398C261.404 65.284 259.346 63.912 256.56 63.912ZM256.56 65.368C258.366 65.368 259.57 66.11 259.57 67.398C259.57 68.672 258.366 69.428 256.56 69.428C254.754 69.428 253.55 68.672 253.55 67.398C253.55 66.11 254.754 65.368 256.56 65.368ZM265.281 75.196C266.009 75.196 266.569 74.622 266.569 73.852C266.569 73.082 266.009 72.522 265.281 72.522C264.539 72.522 264.007 73.082 264.007 73.852C264.007 74.622 264.539 75.196 265.281 75.196Z" fill="black"/>
<path d="M31.4973 280.244V281.41H37.9543V280.244H31.4973ZM30.3753 283.907V285.073H39.5933V283.907H30.3753ZM37.0743 280.244V281.058C37.0743 281.927 37.0743 282.862 36.7553 284.182L38.2073 284.204C38.5153 282.884 38.5153 281.938 38.5153 281.058V280.244H37.0743ZM31.4533 286.14V289.869H38.4713V286.14H31.4533ZM37.0303 287.273V288.714H32.8833V287.273H37.0303ZM42.5295 285.051V287.053H43.9925V285.051H42.5295ZM46.2035 285.051V287.053H47.6665V285.051H46.2035ZM40.4835 284.358V285.524H49.6905V284.358H40.4835ZM45.0705 286.261C42.8595 286.261 41.5285 286.932 41.5285 288.131C41.5285 289.319 42.8595 289.99 45.0705 289.99C47.2705 289.99 48.6015 289.319 48.6015 288.131C48.6015 286.932 47.2705 286.261 45.0705 286.261ZM45.0705 287.372C46.4345 287.372 47.1275 287.614 47.1275 288.131C47.1275 288.648 46.4345 288.879 45.0705 288.879C43.7065 288.879 43.0135 288.648 43.0135 288.131C43.0135 287.614 43.7065 287.372 45.0705 287.372ZM45.0925 279.958C42.8375 279.958 41.4075 280.706 41.4075 281.927C41.4075 283.137 42.8375 283.874 45.0925 283.874C47.3365 283.874 48.7775 283.137 48.7775 281.927C48.7775 280.706 47.3365 279.958 45.0925 279.958ZM45.0925 281.08C46.4785 281.08 47.2705 281.355 47.2705 281.927C47.2705 282.488 46.4785 282.763 45.0925 282.763C43.6955 282.763 42.9145 282.488 42.9145 281.927C42.9145 281.355 43.6955 281.08 45.0925 281.08ZM52.8906 280.574V282.059C52.8906 283.951 52.1096 285.909 50.3936 286.712L51.2736 287.889C53.1986 286.943 54.0786 284.578 54.0786 282.059V280.574H52.8906ZM53.1876 280.574V282.059C53.1876 284.501 53.9906 286.767 55.8276 287.702L56.7076 286.536C55.0796 285.744 54.3536 283.885 54.3536 282.059V280.574H53.1876ZM57.1146 279.793V289.979H58.5886V279.793H57.1146ZM58.2586 283.709V284.93H60.0626V283.709H58.2586ZM67.2337 279.782V289.968H68.7077V279.782H67.2337ZM68.3227 283.676V284.875H70.1157V283.676H68.3227ZM64.5607 280.838V281.091C64.5607 283.852 63.2957 285.722 60.6227 287.108L61.4367 288.219C64.8247 286.514 65.9907 283.896 65.9907 280.838H64.5607ZM61.1837 280.838V282.015H65.3087V280.838H61.1837ZM74.2791 280.651V281.828H80.7361V280.651H74.2791ZM73.3441 287.57V288.758H82.5511V287.57H73.3441ZM76.6001 284.072V288.153H78.0631V284.072H76.6001ZM80.2081 280.651V281.63C80.2081 282.851 80.2081 284.325 79.8011 286.349L81.2641 286.514C81.6711 284.336 81.6711 282.906 81.6711 281.63V280.651H80.2081ZM90.7452 279.793V285.755H92.1312V279.793H90.7452ZM89.5022 282.136V283.324H91.1302V282.136H89.5022ZM88.5232 279.98V285.722H89.8872V279.98H88.5232ZM85.0692 286.173V287.339H90.6792V289.979H92.1312V286.173H85.0692ZM86.4002 280.497V281.047C86.4002 282.719 85.5092 283.951 83.3422 284.754L84.0242 285.821C86.6642 284.787 87.8632 283.071 87.8632 280.497H86.4002ZM83.8262 280.497V281.663H86.8732V280.497H83.8262ZM93.5823 283.742V284.897H102.8V283.742H93.5823ZM94.7153 282.048V283.192H101.711V282.048H94.7153ZM94.7153 279.98V283.038H96.1673V281.146H101.623V279.98H94.7153ZM94.6273 285.469V286.569H100.226V287.13H94.6383V289.044H96.0793V288.164H101.667V285.469H94.6273ZM94.6383 288.78V289.902H101.931V288.78H94.6383ZM103.701 287.669V288.857H112.919V287.669H103.701ZM107.562 285.744V288.153H109.025V285.744H107.562ZM104.735 280.453V281.608H110.433V282.697H104.757V285.557H106.209V283.841H111.885V280.453H104.735ZM104.757 284.974V286.151H112.116V284.974H104.757ZM113.81 285.656V286.811H123.039V285.656H113.81ZM117.66 286.239V289.979H119.112V286.239H117.66ZM114.866 280.178V284.688H121.95V280.178H120.498V281.333H116.318V280.178H114.866ZM116.318 282.477H120.498V283.522H116.318V282.477ZM131.024 279.782V290.001H132.476V279.782H131.024ZM129.275 283.368V284.556H131.189V283.368H129.275ZM124.391 286.514V287.702H125.205C126.921 287.702 128.241 287.658 129.715 287.427L129.583 286.261C128.142 286.492 126.888 286.514 125.205 286.514H124.391ZM124.391 280.64V286.888H125.843V281.828H129.11V280.64H124.391ZM125.513 283.478V284.622H128.758V283.478H125.513ZM138.828 281.399V282.543C138.828 284.215 138.003 286.118 136.32 286.91L137.145 288.065C139.015 287.185 139.983 284.842 139.983 282.543V281.399H138.828ZM139.136 281.399V282.543C139.136 284.71 140.082 286.943 141.952 287.812L142.755 286.657C141.083 285.887 140.291 284.083 140.291 282.543V281.399H139.136ZM136.716 280.772V281.971H142.304V280.772H136.716ZM143.052 279.793V289.979H144.526V279.793H143.052ZM144.196 283.676V284.886H146V283.676H144.196ZM147.792 280.244V281.41H154.249V280.244H147.792ZM146.67 283.907V285.073H155.888V283.907H146.67ZM153.369 280.244V281.058C153.369 281.927 153.369 282.862 153.05 284.182L154.502 284.204C154.81 282.884 154.81 281.938 154.81 281.058V280.244H153.369ZM147.748 286.14V289.869H154.766V286.14H147.748ZM153.325 287.273V288.714H149.178V287.273H153.325ZM161.387 279.936C159.055 279.936 157.702 280.552 157.702 281.674C157.702 282.796 159.055 283.412 161.387 283.412C163.708 283.412 165.072 282.796 165.072 281.674C165.072 280.552 163.708 279.936 161.387 279.936ZM161.387 281.003C162.861 281.003 163.554 281.223 163.554 281.674C163.554 282.147 162.861 282.345 161.387 282.345C159.913 282.345 159.22 282.147 159.22 281.674C159.22 281.223 159.913 281.003 161.387 281.003ZM156.778 283.885V285.04H165.985V283.885H156.778ZM157.834 285.612V286.701H163.433V287.218H157.845V289.132H159.286V288.23H164.874V285.612H157.834ZM157.845 288.813V289.913H165.138V288.813H157.845ZM169.401 287.614V288.802H178.619V287.614H169.401ZM173.262 285.359V287.889H174.725V285.359H173.262ZM170.358 280.541V285.546H177.607V280.541H170.358ZM176.177 281.707V284.391H171.799V281.707H176.177ZM182.237 280.497C180.686 280.497 179.564 281.905 179.564 284.127C179.564 286.371 180.686 287.779 182.237 287.779C183.788 287.779 184.91 286.371 184.91 284.127C184.91 281.905 183.788 280.497 182.237 280.497ZM182.237 281.828C182.996 281.828 183.513 282.631 183.513 284.127C183.513 285.645 182.996 286.459 182.237 286.459C181.478 286.459 180.972 285.645 180.972 284.127C180.972 282.631 181.478 281.828 182.237 281.828ZM186.021 279.793V289.979H187.495V279.793H186.021ZM187.165 283.632V284.842H188.969V283.632H187.165ZM199.182 279.793V287.218H200.645V279.793H199.182ZM197.752 282.565V283.72H200.04V282.565H197.752ZM192.373 280.596V281.762H197.796V280.596H192.373ZM192.263 285.92C193.99 285.92 196.256 285.876 198.247 285.535L198.148 284.468C196.212 284.71 193.858 284.732 192.12 284.732L192.263 285.92ZM193.176 281.553V284.952H194.584V281.553H193.176ZM195.574 281.553V284.952H196.982V281.553H195.574ZM193.913 288.637V289.803H200.876V288.637H193.913ZM193.913 286.613V289.418H195.387V286.613H193.913ZM203.317 284.49V285.656H210.478V284.49H203.317ZM202.25 287.559V288.758H211.468V287.559H202.25ZM203.317 280.629V284.974H204.769V281.817H210.401V280.629H203.317ZM212.358 284.358V285.425H221.587V284.358H212.358ZM213.392 285.931V286.921H219.046V287.427H213.414V289.22H214.866V288.351H220.487V285.931H213.392ZM213.414 288.912V289.902H220.773V288.912H213.414ZM213.491 279.969V280.948H219.024V281.454H213.502V283.203H214.954V282.367H220.465V279.969H213.491ZM213.502 282.895V283.885H220.652V282.895H213.502ZM224.981 287.614V288.802H234.199V287.614H224.981ZM228.853 285.359V287.944H230.316V285.359H228.853ZM228.809 281.124V281.487C228.809 282.895 227.599 284.303 225.333 284.655L225.905 285.81C228.501 285.337 230.041 283.632 230.041 281.487V281.124H228.809ZM229.106 281.124V281.487C229.106 283.632 230.668 285.293 233.308 285.755L233.869 284.6C231.548 284.259 230.338 282.895 230.338 281.487V281.124H229.106ZM225.74 280.563V281.729H233.407V280.563H225.74ZM237.454 280.321V281.234C237.454 282.631 236.739 284.006 235.001 284.567L235.76 285.744C237.762 285.073 238.675 283.28 238.675 281.234V280.321H237.454ZM237.762 280.321V281.168C237.762 283.148 238.576 284.787 240.457 285.436L241.216 284.292C239.599 283.775 238.939 282.521 238.939 281.168V280.321H237.762ZM242.151 279.793V285.755H243.614V279.793H242.151ZM240.16 286.019C238.004 286.019 236.673 286.756 236.673 287.999C236.673 289.253 238.004 289.979 240.16 289.979C242.316 289.979 243.647 289.253 243.647 287.999C243.647 286.756 242.316 286.019 240.16 286.019ZM240.16 287.152C241.491 287.152 242.195 287.427 242.195 287.999C242.195 288.571 241.491 288.857 240.16 288.857C238.84 288.857 238.136 288.571 238.136 287.999C238.136 287.427 238.84 287.152 240.16 287.152ZM240.292 281.641V282.829H242.36V281.641H240.292ZM251.764 279.804V287.416H253.227V279.804H251.764ZM252.809 282.906V284.105H254.58V282.906H252.809ZM245.208 280.86V282.004H251.203V280.86H245.208ZM248.211 282.367C246.737 282.367 245.703 283.17 245.703 284.336C245.703 285.502 246.737 286.294 248.211 286.294C249.674 286.294 250.708 285.502 250.708 284.336C250.708 283.17 249.674 282.367 248.211 282.367ZM248.211 283.478C248.86 283.478 249.311 283.786 249.311 284.336C249.311 284.886 248.86 285.183 248.211 285.183C247.562 285.183 247.111 284.886 247.111 284.336C247.111 283.786 247.562 283.478 248.211 283.478ZM247.474 279.782V281.421H248.937V279.782H247.474ZM246.66 288.637V289.803H253.59V288.637H246.66ZM246.66 286.844V289.143H248.123V286.844H246.66ZM260.415 285.557V289.671H261.889V285.557H260.415ZM264.892 279.793V289.979H266.344V279.793H264.892ZM257.962 286.404C259.865 286.415 262.164 286.404 264.408 286.03L264.342 284.963C262.175 285.227 259.733 285.216 257.797 285.216L257.962 286.404ZM258.677 283.016V284.182H263.715V283.016H258.677ZM258.677 280.332V283.797H260.14V281.487H263.605V280.332H258.677ZM268.412 291.354C269.754 290.914 270.491 289.935 270.491 288.637C270.491 287.647 270.073 287.053 269.336 287.053C268.753 287.053 268.28 287.427 268.28 288.01C268.28 288.615 268.764 288.967 269.292 288.967C269.534 288.967 269.754 288.89 269.919 288.725L269.347 287.779L269.402 288.923C269.413 289.572 268.94 290.155 268.082 290.474L268.412 291.354ZM142.283 296.464C140.688 296.464 139.467 297.509 139.467 298.972C139.467 300.446 140.688 301.491 142.283 301.491C143.889 301.491 145.088 300.446 145.088 298.972C145.088 297.509 143.889 296.464 142.283 296.464ZM142.283 297.718C143.064 297.718 143.658 298.18 143.658 298.972C143.658 299.775 143.064 300.237 142.283 300.237C141.502 300.237 140.908 299.775 140.908 298.972C140.908 298.18 141.502 297.718 142.283 297.718ZM146.045 295.782V306.001H147.508V295.782H146.045ZM139.225 303.933C140.985 303.933 143.383 303.911 145.594 303.471L145.484 302.415C143.339 302.734 140.842 302.756 139.049 302.756L139.225 303.933ZM218.894 299.544V300.721H220.566V299.544H218.894ZM222.183 295.793V305.979H223.58V295.793H222.183ZM220.104 295.947V305.517H221.479V295.947H220.104ZM217.112 296.508C215.77 296.508 214.912 297.905 214.912 300.204C214.912 302.514 215.77 303.911 217.112 303.911C218.465 303.911 219.334 302.514 219.334 300.204C219.334 297.905 218.465 296.508 217.112 296.508ZM217.112 297.883C217.684 297.883 218.003 298.653 218.003 300.204C218.003 301.766 217.684 302.525 217.112 302.525C216.562 302.525 216.243 301.766 216.243 300.204C216.243 298.653 216.562 297.883 217.112 297.883ZM95.2675 312.673V313.3C95.2675 314.499 94.5305 315.731 92.8255 316.226L93.5625 317.37C95.5205 316.776 96.4665 315.126 96.4665 313.3V312.673H95.2675ZM95.5645 312.673V313.3C95.5645 315.06 96.5105 316.633 98.4355 317.194L99.1505 316.061C97.5005 315.588 96.7635 314.433 96.7635 313.3V312.673H95.5645ZM93.2215 312.343V313.498H98.7655V312.343H93.2215ZM99.7885 311.793V317.315H101.263V311.793H99.7885ZM94.4865 317.755V321.869H101.263V317.755H99.8105V318.679H95.9275V317.755H94.4865ZM95.9275 319.812H99.8105V320.703H95.9275V319.812ZM106.784 316.908V318.701H108.247V316.908H106.784ZM102.912 316.424V317.579H112.119V316.424H102.912ZM107.499 318.305C105.288 318.305 103.957 318.965 103.957 320.142C103.957 321.319 105.288 321.979 107.499 321.979C109.699 321.979 111.03 321.319 111.03 320.142C111.03 318.965 109.699 318.305 107.499 318.305ZM107.499 319.405C108.863 319.405 109.556 319.636 109.556 320.142C109.556 320.637 108.863 320.879 107.499 320.879C106.135 320.879 105.442 320.637 105.442 320.142C105.442 319.636 106.135 319.405 107.499 319.405ZM106.509 312.75V313.003C106.509 313.795 105.53 314.697 103.297 314.884L103.803 316.028C106.432 315.786 107.807 314.532 107.807 313.003V312.75H106.509ZM107.224 312.75V313.003C107.224 314.543 108.61 315.786 111.228 316.028L111.734 314.884C109.49 314.697 108.522 313.806 108.522 313.003V312.75H107.224ZM103.748 312.211V313.366H111.294V312.211H103.748ZM115.385 312.805V313.454C115.385 314.73 114.659 316.072 112.976 316.622L113.713 317.777C115.671 317.139 116.573 315.368 116.573 313.454V312.805H115.385ZM115.693 312.805V313.454C115.693 315.258 116.562 316.952 118.454 317.579L119.169 316.435C117.563 315.896 116.87 314.642 116.87 313.454V312.805H115.693ZM118.575 314.224V315.412H120.511V314.224H118.575ZM113.372 312.354V313.509H118.85V312.354H113.372ZM114.615 318.316V319.482H120.093V321.979H121.556V318.316H114.615ZM120.093 311.793V317.854H121.556V311.793H120.093ZM127.759 312.299C125.614 312.299 123.953 313.476 123.953 315.247C123.953 317.029 125.614 318.195 127.759 318.195C129.904 318.195 131.565 317.029 131.565 315.247C131.565 313.476 129.904 312.299 127.759 312.299ZM127.759 313.487C129.145 313.487 130.135 314.147 130.135 315.247C130.135 316.336 129.145 316.996 127.759 316.996C126.373 316.996 125.383 316.336 125.383 315.247C125.383 314.147 126.373 313.487 127.759 313.487ZM123.161 319.559V320.758H132.379V319.559H123.161ZM133.28 319.669V320.857H142.498V319.669H133.28ZM137.141 317.744V320.153H138.604V317.744H137.141ZM134.314 312.453V313.608H140.012V314.697H134.336V317.557H135.788V315.841H141.464V312.453H134.314ZM134.336 316.974V318.151H141.695V316.974H134.336ZM145.88 317.832V319.02H155.098V317.832H145.88ZM149.752 318.25V321.99H151.204V318.25H149.752ZM147.024 315.94V317.095H154.141V315.94H147.024ZM147.024 312.2V316.215H148.465V313.344H154.031V312.2H147.024ZM148.058 314.081V315.192H153.811V314.081H148.058ZM158.288 313.399V314.543C158.288 316.215 157.463 318.118 155.78 318.91L156.605 320.065C158.475 319.185 159.443 316.842 159.443 314.543V313.399H158.288ZM158.596 313.399V314.543C158.596 316.71 159.542 318.943 161.412 319.812L162.215 318.657C160.543 317.887 159.751 316.083 159.751 314.543V313.399H158.596ZM156.176 312.772V313.971H161.764V312.772H156.176ZM162.512 311.793V321.979H163.986V311.793H162.512ZM163.656 315.676V316.886H165.46V315.676H163.656ZM172.653 311.793V321.979H174.105V311.793H172.653ZM173.775 315.764V316.985H175.579V315.764H173.775ZM166.075 313.3V314.466H172.004V313.3H166.075ZM169.056 315.038C167.571 315.038 166.471 316.05 166.471 317.469C166.471 318.888 167.571 319.9 169.056 319.9C170.541 319.9 171.641 318.888 171.641 317.469C171.641 316.05 170.541 315.038 169.056 315.038ZM169.056 316.226C169.749 316.226 170.244 316.688 170.244 317.469C170.244 318.25 169.749 318.712 169.056 318.712C168.363 318.712 167.868 318.25 167.868 317.469C167.868 316.688 168.363 316.226 169.056 316.226ZM168.319 311.958V313.74H169.782V311.958H168.319ZM177.382 314.543V315.698H184.444V314.543H177.382ZM176.238 316.754V317.92H185.467V316.754H176.238ZM177.382 312.156V315.115H178.834V312.156H177.382ZM177.283 320.593V321.759H184.499V320.593H177.283ZM177.283 318.734V320.901H178.746V318.734H177.283ZM191.082 312.343V313.245C191.082 314.631 190.389 315.995 188.684 316.567L189.465 317.722C191.401 317.051 192.281 315.269 192.281 313.245V312.343H191.082ZM191.379 312.343V313.388C191.379 315.225 192.248 316.809 194.085 317.425L194.844 316.292C193.249 315.797 192.567 314.609 192.567 313.388V312.343H191.379ZM195.405 311.793V317.81H196.868V311.793H195.405ZM196.461 314.147V315.357H198.221V314.147H196.461ZM193.546 318.041C191.423 318.041 190.092 318.778 190.092 320.01C190.092 321.253 191.423 321.979 193.546 321.979C195.658 321.979 196.989 321.253 196.989 320.01C196.989 318.778 195.658 318.041 193.546 318.041ZM193.546 319.174C194.844 319.174 195.537 319.449 195.537 320.01C195.537 320.582 194.844 320.846 193.546 320.846C192.248 320.846 191.544 320.582 191.544 320.01C191.544 319.449 192.248 319.174 193.546 319.174ZM202.84 317.392V318.943H204.303V317.392H202.84ZM198.968 316.556V317.711H208.175V316.556H198.968ZM199.771 312.068V313.234H207.361V312.068H199.771ZM199.848 314.763V315.929H207.284V314.763H199.848ZM201.069 312.497V315.522H202.532V312.497H201.069ZM204.6 312.497V315.522H206.063V312.497H204.6ZM200.035 318.558V321.869H207.075V318.558H200.035ZM205.645 319.691V320.714H201.476V319.691H205.645Z" fill="black"/>
<path d="M77.2341 296.629V301.546H82.0851V296.629H77.2341ZM80.6441 297.784V300.391H78.6751V297.784H80.6441ZM83.4931 295.793V303.218H84.9561V295.793H83.4931ZM84.5381 298.73V299.929H86.3091V298.73H84.5381ZM78.3891 304.637V305.803H85.3191V304.637H78.3891ZM78.3891 302.492V305.22H79.8521V302.492H78.3891ZM94.0742 295.793V305.979H95.5482V295.793H94.0742ZM91.0712 296.849V297.113C91.0712 299.841 90.0152 301.689 87.0892 303.097L87.8482 304.263C91.4672 302.514 92.5232 299.962 92.5232 296.849H91.0712ZM87.6282 296.849V298.004H91.7642V296.849H87.6282ZM100.119 305H105.025V303.691H103.496V296.86H102.297C101.769 297.179 101.219 297.388 100.394 297.542V298.543H101.879V303.691H100.119V305ZM113.218 295.793V303.284H114.681V295.793H113.218ZM110.754 296.926V298.07H113.713V296.926H110.754ZM107.949 304.637V305.803H114.912V304.637H107.949ZM107.949 302.613V305.231H109.423V302.613H107.949ZM106.717 296.442V301.227H108.169V296.442H106.717ZM106.717 300.787V301.975H107.531C109.06 301.975 110.402 301.92 111.898 301.645L111.766 300.468C110.314 300.721 109.005 300.787 107.531 300.787H106.717ZM110.754 298.818V299.973H113.713V298.818H110.754ZM119.273 296.706V303.559H124.168V296.706H119.273ZM122.738 297.85V302.404H120.714V297.85H122.738ZM125.752 295.782V306.001H127.226V295.782H125.752ZM129.183 296.629V301.546H134.034V296.629H129.183ZM132.593 297.784V300.391H130.624V297.784H132.593ZM135.442 295.793V303.218H136.905V295.793H135.442ZM136.487 298.73V299.929H138.258V298.73H136.487ZM130.338 304.637V305.803H137.268V304.637H130.338ZM130.338 302.492V305.22H131.801V302.492H130.338ZM158.173 295.793V303.152H159.636V295.793H158.173ZM159.218 298.565V299.764H160.989V298.565H159.218ZM152.002 300.314V301.491H152.849C155.115 301.491 156.281 301.436 157.524 301.161L157.381 300.006C156.16 300.27 155.06 300.314 152.849 300.314H152.002ZM152.002 296.596V300.941H153.454V297.773H156.556V296.596H152.002ZM153.069 304.637V305.803H159.999V304.637H153.069ZM153.069 302.382V305.231H154.532V302.382H153.069ZM168.754 295.793V305.979H170.228V295.793H168.754ZM165.751 296.849V297.113C165.751 299.841 164.695 301.689 161.769 303.097L162.528 304.263C166.147 302.514 167.203 299.962 167.203 296.849H165.751ZM162.308 296.849V298.004H166.444V296.849H162.308ZM175.48 296.244V297.41H181.937V296.244H175.48ZM174.358 299.907V301.073H183.576V299.907H174.358ZM181.057 296.244V297.058C181.057 297.927 181.057 298.862 180.738 300.182L182.19 300.204C182.498 298.884 182.498 297.938 182.498 297.058V296.244H181.057ZM175.436 302.14V305.869H182.454V302.14H175.436ZM181.013 303.273V304.714H176.866V303.273H181.013ZM186.512 301.051V303.053H187.975V301.051H186.512ZM190.186 301.051V303.053H191.649V301.051H190.186ZM184.466 300.358V301.524H193.673V300.358H184.466ZM189.053 302.261C186.842 302.261 185.511 302.932 185.511 304.131C185.511 305.319 186.842 305.99 189.053 305.99C191.253 305.99 192.584 305.319 192.584 304.131C192.584 302.932 191.253 302.261 189.053 302.261ZM189.053 303.372C190.417 303.372 191.11 303.614 191.11 304.131C191.11 304.648 190.417 304.879 189.053 304.879C187.689 304.879 186.996 304.648 186.996 304.131C186.996 303.614 187.689 303.372 189.053 303.372ZM189.075 295.958C186.82 295.958 185.39 296.706 185.39 297.927C185.39 299.137 186.82 299.874 189.075 299.874C191.319 299.874 192.76 299.137 192.76 297.927C192.76 296.706 191.319 295.958 189.075 295.958ZM189.075 297.08C190.461 297.08 191.253 297.355 191.253 297.927C191.253 298.488 190.461 298.763 189.075 298.763C187.678 298.763 186.897 298.488 186.897 297.927C186.897 297.355 187.678 297.08 189.075 297.08ZM196.819 296.343V297.245C196.819 298.631 196.126 299.995 194.421 300.567L195.202 301.722C197.138 301.051 198.018 299.269 198.018 297.245V296.343H196.819ZM197.116 296.343V297.388C197.116 299.225 197.985 300.809 199.822 301.425L200.581 300.292C198.986 299.797 198.304 298.609 198.304 297.388V296.343H197.116ZM201.142 295.793V301.81H202.605V295.793H201.142ZM202.198 298.147V299.357H203.958V298.147H202.198ZM199.283 302.041C197.16 302.041 195.829 302.778 195.829 304.01C195.829 305.253 197.16 305.979 199.283 305.979C201.395 305.979 202.726 305.253 202.726 304.01C202.726 302.778 201.395 302.041 199.283 302.041ZM199.283 303.174C200.581 303.174 201.274 303.449 201.274 304.01C201.274 304.582 200.581 304.846 199.283 304.846C197.985 304.846 197.281 304.582 197.281 304.01C197.281 303.449 197.985 303.174 199.283 303.174ZM208.577 301.392V302.943H210.04V301.392H208.577ZM204.705 300.556V301.711H213.912V300.556H204.705ZM205.508 296.068V297.234H213.098V296.068H205.508ZM205.585 298.763V299.929H213.021V298.763H205.585ZM206.806 296.497V299.522H208.269V296.497H206.806ZM210.337 296.497V299.522H211.8V296.497H210.337ZM205.772 302.558V305.869H212.812V302.558H205.772ZM211.382 303.691V304.714H207.213V303.691H211.382Z" fill="#354EF2"/>
<path d="M119.309 349H120.255L120.552 346.613H121.927L121.652 349H122.609L122.895 346.613H124.083V345.568H123.016L123.214 344.061H124.325V343.016H123.335L123.599 340.893H122.642L122.378 343.016H120.981L121.245 340.893H120.299L120.035 343.016H118.902V344.061H119.903L119.716 345.568H118.649V346.613H119.584L119.309 349ZM120.662 345.568L120.849 344.061H122.246L122.059 345.568H120.662ZM165.215 340.343V341.245C165.215 342.631 164.522 343.995 162.817 344.567L163.598 345.722C165.534 345.051 166.414 343.269 166.414 341.245V340.343H165.215ZM165.512 340.343V341.388C165.512 343.225 166.381 344.809 168.218 345.425L168.977 344.292C167.382 343.797 166.7 342.609 166.7 341.388V340.343H165.512ZM169.538 339.793V345.81H171.001V339.793H169.538ZM170.594 342.147V343.357H172.354V342.147H170.594ZM167.679 346.041C165.556 346.041 164.225 346.778 164.225 348.01C164.225 349.253 165.556 349.979 167.679 349.979C169.791 349.979 171.122 349.253 171.122 348.01C171.122 346.778 169.791 346.041 167.679 346.041ZM167.679 347.174C168.977 347.174 169.67 347.449 169.67 348.01C169.67 348.582 168.977 348.846 167.679 348.846C166.381 348.846 165.677 348.582 165.677 348.01C165.677 347.449 166.381 347.174 167.679 347.174ZM176.973 345.392V346.943H178.436V345.392H176.973ZM173.101 344.556V345.711H182.308V344.556H173.101ZM173.904 340.068V341.234H181.494V340.068H173.904ZM173.981 342.763V343.929H181.417V342.763H173.981ZM175.202 340.497V343.522H176.665V340.497H175.202ZM178.733 340.497V343.522H180.196V340.497H178.733ZM174.168 346.558V349.869H181.208V346.558H174.168ZM179.778 347.691V348.714H175.609V347.691H179.778Z" fill="black"/>
<path d="M130.143 347.636V348.824H139.361V347.636H130.143ZM134.015 345.678V348.252H135.478V345.678H134.015ZM134.004 341.916V342.136C134.004 343.302 132.904 344.567 130.429 344.864L130.957 346.019C133.751 345.656 135.302 344.083 135.302 342.136V341.916H134.004ZM134.202 341.916V342.136C134.202 344.083 135.742 345.656 138.536 346.019L139.064 344.864C136.589 344.567 135.489 343.302 135.489 342.136V341.916H134.202ZM130.924 341.168V342.345H138.569V341.168H130.924ZM134.015 339.925V341.652H135.478V339.925H134.015ZM146.808 339.793V347.152H148.271V339.793H146.808ZM147.853 342.565V343.764H149.624V342.565H147.853ZM140.637 344.314V345.491H141.484C143.75 345.491 144.916 345.436 146.159 345.161L146.016 344.006C144.795 344.27 143.695 344.314 141.484 344.314H140.637ZM140.637 340.596V344.941H142.089V341.773H145.191V340.596H140.637ZM141.704 348.637V349.803H148.634V348.637H141.704ZM141.704 346.382V349.231H143.167V346.382H141.704ZM157.389 339.793V349.979H158.863V339.793H157.389ZM154.386 340.849V341.113C154.386 343.841 153.33 345.689 150.404 347.097L151.163 348.263C154.782 346.514 155.838 343.962 155.838 340.849H154.386ZM150.943 340.849V342.004H155.079V340.849H150.943Z" fill="#354EF2"/>
<path d="M98.7165 248.05L99.8265 247.59C98.9965 246.11 98.6365 244.43 98.6365 242.82C98.6365 241.22 98.9965 239.53 99.8265 238.05L98.7165 237.59C97.7565 239.16 97.2065 240.81 97.2065 242.82C97.2065 244.84 97.7565 246.48 98.7165 248.05ZM101.26 246H102.86V243.45C102.86 242.71 102.72 241.6 102.63 240.87H102.67L103.27 242.65L104.28 245.37H105.26L106.26 242.65L106.88 240.87H106.93C106.83 241.6 106.69 242.71 106.69 243.45V246H108.32V238.55H106.38L105.24 241.77C105.1 242.2 104.98 242.67 104.83 243.12H104.78C104.64 242.67 104.52 242.2 104.37 241.77L103.19 238.55H101.26V246ZM112.36 246.14C113.8 246.14 115.14 245.04 115.14 243.15C115.14 241.27 113.8 240.17 112.36 240.17C110.91 240.17 109.57 241.27 109.57 243.15C109.57 245.04 110.91 246.14 112.36 246.14ZM112.36 244.7C111.69 244.7 111.39 244.1 111.39 243.15C111.39 242.21 111.69 241.61 112.36 241.61C113.02 241.61 113.32 242.21 113.32 243.15C113.32 244.1 113.02 244.7 112.36 244.7ZM116.257 246H118.037V242.2C118.377 241.87 118.617 241.69 119.017 241.69C119.467 241.69 119.677 241.91 119.677 242.7V246H121.457V242.48C121.457 241.06 120.927 240.17 119.687 240.17C118.917 240.17 118.337 240.56 117.867 241.02H117.837L117.707 240.31H116.257V246ZM125.419 246.14C126.079 246.14 126.859 245.91 127.449 245.49L126.859 244.42C126.449 244.66 126.069 244.78 125.659 244.78C124.939 244.78 124.399 244.46 124.239 243.68H127.579C127.619 243.54 127.659 243.23 127.659 242.91C127.659 241.36 126.859 240.17 125.219 240.17C123.849 240.17 122.519 241.31 122.519 243.15C122.519 245.04 123.779 246.14 125.419 246.14ZM124.209 242.51C124.329 241.84 124.759 241.53 125.249 241.53C125.899 241.53 126.149 241.95 126.149 242.51H124.209ZM129.34 248.19C130.69 248.19 131.31 247.47 131.86 246.01L133.82 240.31H132.12L131.46 242.67C131.33 243.21 131.2 243.74 131.09 244.28H131.04C130.89 243.72 130.77 243.19 130.6 242.67L129.84 240.31H128.05L130.23 245.83L130.15 246.12C130.02 246.52 129.74 246.8 129.2 246.8C129.07 246.8 128.92 246.75 128.82 246.73L128.5 248.08C128.74 248.15 128.97 248.19 129.34 248.19ZM137.09 246H138.69V243.45C138.69 242.71 138.55 241.6 138.46 240.87H138.5L139.1 242.65L140.11 245.37H141.09L142.09 242.65L142.71 240.87H142.76C142.66 241.6 142.52 242.71 142.52 243.45V246H144.15V238.55H142.21L141.07 241.77C140.93 242.2 140.81 242.67 140.66 243.12H140.61C140.47 242.67 140.35 242.2 140.2 241.77L139.02 238.55H137.09V246ZM147.16 246.14C147.79 246.14 148.32 245.85 148.79 245.43H148.84L148.96 246H150.41V242.77C150.41 240.99 149.58 240.17 148.11 240.17C147.22 240.17 146.41 240.47 145.66 240.92L146.28 242.09C146.85 241.77 147.32 241.59 147.77 241.59C148.35 241.59 148.59 241.86 148.63 242.32C146.41 242.56 145.47 243.21 145.47 244.41C145.47 245.36 146.11 246.14 147.16 246.14ZM147.77 244.76C147.4 244.76 147.16 244.6 147.16 244.27C147.16 243.87 147.52 243.54 148.63 243.4V244.31C148.37 244.59 148.13 244.76 147.77 244.76ZM151.784 246H153.564V242.75C153.854 242 154.364 241.73 154.784 241.73C155.034 241.73 155.204 241.77 155.414 241.82L155.704 240.29C155.544 240.22 155.354 240.17 155.014 240.17C154.444 240.17 153.814 240.54 153.394 241.3H153.364L153.234 240.31H151.784V246ZM156.423 246H158.173V244.59L158.833 243.84L160.063 246H161.993L159.873 242.68L161.853 240.31H159.903L158.223 242.45H158.173V238.01H156.423V246ZM164.931 246.14C165.591 246.14 166.371 245.91 166.961 245.49L166.371 244.42C165.961 244.66 165.581 244.78 165.171 244.78C164.451 244.78 163.911 244.46 163.751 243.68H167.091C167.131 243.54 167.171 243.23 167.171 242.91C167.171 241.36 166.371 240.17 164.731 240.17C163.361 240.17 162.031 241.31 162.031 243.15C162.031 245.04 163.291 246.14 164.931 246.14ZM163.721 242.51C163.841 241.84 164.271 241.53 164.761 241.53C165.411 241.53 165.661 241.95 165.661 242.51H163.721ZM170.362 246.14C170.942 246.14 171.352 246.02 171.652 245.93L171.372 244.64C171.232 244.69 171.032 244.75 170.852 244.75C170.432 244.75 170.132 244.5 170.132 243.87V241.7H171.472V240.31H170.132V238.8H168.662L168.462 240.31L167.582 240.38V241.7H168.352V243.89C168.352 245.23 168.932 246.14 170.362 246.14ZM175.001 246H176.791V243.16H179.331V241.67H176.791V240.04H179.751V238.55H175.001V246ZM182.333 246.14C183.103 246.14 183.633 245.78 184.103 245.22H184.143L184.273 246H185.723V240.31H183.943V244.04C183.643 244.46 183.393 244.62 182.993 244.62C182.543 244.62 182.333 244.39 182.333 243.61V240.31H180.553V243.83C180.553 245.25 181.083 246.14 182.333 246.14ZM187.156 246H188.936V242.2C189.276 241.87 189.516 241.69 189.916 241.69C190.366 241.69 190.576 241.91 190.576 242.7V246H192.356V242.48C192.356 241.06 191.826 240.17 190.586 240.17C189.816 240.17 189.236 240.56 188.766 241.02H188.736L188.606 240.31H187.156V246ZM195.778 246.14C196.318 246.14 196.868 245.85 197.268 245.45H197.308L197.438 246H198.888V238.01H197.108V239.91L197.168 240.76C196.798 240.4 196.428 240.17 195.798 240.17C194.618 240.17 193.448 241.29 193.448 243.15C193.448 245.01 194.358 246.14 195.778 246.14ZM196.248 244.68C195.638 244.68 195.278 244.22 195.278 243.13C195.278 242.08 195.728 241.62 196.218 241.62C196.518 241.62 196.838 241.71 197.108 241.96V244.2C196.858 244.57 196.588 244.68 196.248 244.68ZM201.28 248.05C202.24 246.48 202.79 244.84 202.79 242.82C202.79 240.81 202.24 239.16 201.28 237.59L200.17 238.05C201 239.53 201.36 241.22 201.36 242.82C201.36 244.43 201 246.11 200.17 247.59L201.28 248.05ZM128.582 251.57V258.34H130.192V251.57H128.582ZM129.752 254V255.31H131.362V254H129.752ZM123.062 255.59V256.88H123.872C126.032 256.88 127.082 256.83 128.142 256.58L127.992 255.32C126.942 255.55 125.972 255.59 123.872 255.59H123.062ZM123.062 252.27V256.27H124.672V253.55H127.292V252.27H123.062ZM124.032 259.53V260.81H130.482V259.53H124.032ZM124.032 257.61V260.2H125.652V257.61H124.032ZM138.222 251.56V260.94H139.842V251.56H138.222ZM135.442 252.51V252.81C135.442 255.34 134.622 256.89 131.932 258.18L132.772 259.45C136.212 257.8 137.042 255.47 137.042 252.51H135.442ZM132.472 252.51V253.78H136.222V252.51H132.472ZM142.181 251.94V253.21H148.071V251.94H142.181ZM141.161 255.27V256.54H149.651V255.27H141.161ZM147.121 251.94V252.72C147.121 253.53 147.121 254.37 146.841 255.55H148.451C148.711 254.38 148.711 253.54 148.711 252.72V251.94H147.121ZM142.131 257.36V260.86H148.631V257.36H142.131ZM147.051 258.61V259.6H143.711V258.61H147.051ZM152.1 256.46V258.3H153.71V256.46H152.1ZM155.49 256.46V258.3H157.1V256.46H155.49ZM150.35 255.67V256.94H158.84V255.67H150.35ZM154.57 257.48C152.53 257.48 151.29 258.11 151.29 259.23C151.29 260.34 152.53 260.97 154.57 260.97C156.61 260.97 157.85 260.34 157.85 259.23C157.85 258.11 156.61 257.48 154.57 257.48ZM154.57 258.69C155.71 258.69 156.22 258.84 156.22 259.23C156.22 259.62 155.71 259.76 154.57 259.76C153.43 259.76 152.92 259.62 152.92 259.23C152.92 258.84 153.43 258.69 154.57 258.69ZM154.6 251.7C152.51 251.7 151.15 252.4 151.15 253.54C151.15 254.67 152.51 255.36 154.6 255.36C156.69 255.36 158.05 254.67 158.05 253.54C158.05 252.4 156.69 251.7 154.6 251.7ZM154.6 252.92C155.77 252.92 156.38 253.1 156.38 253.54C156.38 253.97 155.77 254.15 154.6 254.15C153.43 254.15 152.82 253.97 152.82 253.54C152.82 253.1 153.43 252.92 154.6 252.92ZM165.859 251.57V258.34H167.479V251.57H165.859ZM164.739 254.06V255.33H166.819V254.06H164.739ZM159.759 252.25V253.53H164.769V252.25H159.759ZM159.689 257.33C161.289 257.33 163.349 257.29 165.169 256.98L165.059 255.81C163.289 256.02 161.149 256.04 159.539 256.04L159.689 257.33ZM160.399 253.29V256.29H161.949V253.29H160.399ZM162.579 253.29V256.29H164.129V253.29H162.579ZM161.169 259.53V260.81H167.669V259.53H161.169ZM161.169 257.81V260.4H162.789V257.81H161.169ZM169.698 255.8V257.07H176.378V255.8H169.698ZM168.758 258.59V259.9H177.248V258.59H168.758ZM169.698 252.28V256.32H171.298V253.58H176.318V252.28H169.698Z" fill="black"/>
<ellipse cx="150.923" cy="149.562" rx="60.9232" ry="58.5621" fill="#D9D9D9"/>
<path fill-rule="evenodd" clip-rule="evenodd" d="M145.973 138.437C144.108 138.437 142.418 140.056 142.418 142.262C142.418 143.764 142.741 144.451 143.027 144.816C143.333 145.207 143.849 145.554 144.863 145.914L156.911 150.1C158.253 150.575 159.708 151.288 160.783 152.66C161.879 154.057 162.347 155.835 162.347 157.979C162.347 162.466 158.839 166.285 154.31 166.285H146.81C141.796 166.285 137.936 162.071 137.936 157.082C137.936 155.845 138.939 154.841 140.177 154.841C141.414 154.841 142.418 155.845 142.418 157.082C142.418 159.803 144.474 161.803 146.81 161.803H154.31C156.175 161.803 157.865 160.184 157.865 157.979C157.865 156.477 157.542 155.79 157.256 155.425C156.949 155.034 156.434 154.687 155.42 154.326L143.372 150.141C142.03 149.665 140.575 148.952 139.5 147.581C138.404 146.183 137.936 144.405 137.936 142.262C137.936 137.774 141.444 133.955 145.973 133.955H153.473C158.487 133.955 162.347 138.17 162.347 143.158C162.347 144.396 161.344 145.399 160.106 145.399C158.869 145.399 157.865 144.396 157.865 143.158C157.865 140.438 155.809 138.437 153.473 138.437H145.973Z" fill="#3A3A3A"/>
<path fill-rule="evenodd" clip-rule="evenodd" d="M150.121 129.952C151.359 129.952 152.362 130.955 152.362 132.193V168.049C152.362 169.287 151.359 170.29 150.121 170.29C148.883 170.29 147.88 169.287 147.88 168.049V132.193C147.88 130.955 148.883 129.952 150.121 129.952Z" fill="#3A3A3A"/>
<path fill-rule="evenodd" clip-rule="evenodd" d="M150.121 122.482C134.856 122.482 122.482 134.856 122.482 150.121C122.482 165.385 134.856 177.76 150.121 177.76C165.385 177.76 177.76 165.385 177.76 150.121C177.76 134.856 165.385 122.482 150.121 122.482ZM118 150.121C118 132.381 132.381 118 150.121 118C167.861 118 182.242 132.381 182.242 150.121C182.242 167.861 167.861 182.242 150.121 182.242C132.381 182.242 118 167.861 118 150.121Z" fill="#3A3A3A"/>
<path d="M148.374 187.171H151.574V182.071C151.574 180.591 151.294 178.371 151.114 176.911H151.194L152.394 180.471L154.414 185.911H156.374L158.374 180.471L159.614 176.911H159.714C159.514 178.371 159.234 180.591 159.234 182.071V187.171H162.494V172.271H158.614L156.334 178.711C156.054 179.571 155.814 180.511 155.514 181.411H155.414C155.134 180.511 154.894 179.571 154.594 178.711L152.234 172.271H148.374V187.171ZM165.913 187.171H169.113V182.071C169.113 180.591 168.833 178.371 168.653 176.911H168.733L169.933 180.471L171.953 185.911H173.913L175.913 180.471L177.153 176.911H177.253C177.053 178.371 176.773 180.591 176.773 182.071V187.171H180.033V172.271H176.153L173.873 178.711C173.593 179.571 173.353 180.511 173.053 181.411H172.953C172.673 180.511 172.433 179.571 172.133 178.711L169.773 172.271H165.913V187.171ZM183.452 187.171H187.032V181.491H192.112V178.511H187.032V175.251H192.952V172.271H183.452V187.171Z" fill="#4276F2"/>
<path d="M148.374 187.171H147.374V188.171H148.374V187.171ZM151.574 187.171V188.171H152.574V187.171H151.574ZM151.114 176.911V175.911H149.983L150.122 177.033L151.114 176.911ZM151.194 176.911L152.142 176.591L151.913 175.911H151.194V176.911ZM152.394 180.471L151.447 180.79L151.452 180.804L151.457 180.819L152.394 180.471ZM154.414 185.911L153.477 186.259L153.719 186.911H154.414V185.911ZM156.374 185.911V186.911H157.072L157.313 186.256L156.374 185.911ZM158.374 180.471L159.313 180.816L159.316 180.808L159.319 180.8L158.374 180.471ZM159.614 176.911V175.911H158.904L158.67 176.582L159.614 176.911ZM159.714 176.911L160.705 177.046L160.861 175.911H159.714V176.911ZM159.234 187.171H158.234V188.171H159.234V187.171ZM162.494 187.171V188.171H163.494V187.171H162.494ZM162.494 172.271H163.494V171.271H162.494V172.271ZM158.614 172.271V171.271H157.908L157.672 171.937L158.614 172.271ZM156.334 178.711L155.392 178.377L155.387 178.389L155.383 178.401L156.334 178.711ZM155.514 181.411V182.411H156.235L156.463 181.727L155.514 181.411ZM155.414 181.411L154.459 181.708L154.678 182.411H155.414V181.411ZM154.594 178.711L155.538 178.381L155.536 178.374L155.533 178.367L154.594 178.711ZM152.234 172.271L153.173 171.927L152.933 171.271H152.234V172.271ZM148.374 172.271V171.271H147.374V172.271H148.374ZM148.374 188.171H151.574V186.171H148.374V188.171ZM152.574 187.171V182.071H150.574V187.171H152.574ZM152.574 182.071C152.574 180.514 152.283 178.222 152.107 176.788L150.122 177.033C150.305 178.52 150.574 180.667 150.574 182.071H152.574ZM151.114 177.911H151.194V175.911H151.114V177.911ZM150.247 177.23L151.447 180.79L153.342 180.151L152.142 176.591L150.247 177.23ZM151.457 180.819L153.477 186.259L155.352 185.563L153.332 180.123L151.457 180.819ZM154.414 186.911H156.374V184.911H154.414V186.911ZM157.313 186.256L159.313 180.816L157.436 180.126L155.436 185.566L157.313 186.256ZM159.319 180.8L160.559 177.24L158.67 176.582L157.43 180.142L159.319 180.8ZM159.614 177.911H159.714V175.911H159.614V177.911ZM158.724 176.775C158.525 178.223 158.234 180.511 158.234 182.071H160.234C160.234 180.671 160.503 178.519 160.705 177.046L158.724 176.775ZM158.234 182.071V187.171H160.234V182.071H158.234ZM159.234 188.171H162.494V186.171H159.234V188.171ZM163.494 187.171V172.271H161.494V187.171H163.494ZM162.494 171.271H158.614V173.271H162.494V171.271ZM157.672 171.937L155.392 178.377L157.277 179.044L159.557 172.604L157.672 171.937ZM155.383 178.401C155.238 178.849 155.103 179.316 154.972 179.766C154.839 180.222 154.709 180.665 154.566 181.094L156.463 181.727C156.62 181.256 156.76 180.779 156.892 180.325C157.026 179.865 157.151 179.432 157.285 179.02L155.383 178.401ZM155.514 180.411H155.414V182.411H155.514V180.411ZM156.369 181.114C156.114 180.294 155.842 179.25 155.538 178.381L153.65 179.04C153.947 179.891 154.154 180.727 154.459 181.708L156.369 181.114ZM155.533 178.367L153.173 171.927L151.295 172.615L153.655 179.055L155.533 178.367ZM152.234 171.271H148.374V173.271H152.234V171.271ZM147.374 172.271V187.171H149.374V172.271H147.374ZM165.913 187.171H164.913V188.171H165.913V187.171ZM169.113 187.171V188.171H170.113V187.171H169.113ZM168.653 176.911V175.911H167.523L167.661 177.033L168.653 176.911ZM168.733 176.911L169.681 176.591L169.452 175.911H168.733V176.911ZM169.933 180.471L168.986 180.79L168.991 180.804L168.996 180.819L169.933 180.471ZM171.953 185.911L171.016 186.259L171.258 186.911H171.953V185.911ZM173.913 185.911V186.911H174.611L174.852 186.256L173.913 185.911ZM175.913 180.471L176.852 180.816L176.855 180.808L176.858 180.8L175.913 180.471ZM177.153 176.911V175.911H176.443L176.209 176.582L177.153 176.911ZM177.253 176.911L178.244 177.046L178.4 175.911H177.253V176.911ZM176.773 187.171H175.773V188.171H176.773V187.171ZM180.033 187.171V188.171H181.033V187.171H180.033ZM180.033 172.271H181.033V171.271H180.033V172.271ZM176.153 172.271V171.271H175.447L175.211 171.937L176.153 172.271ZM173.873 178.711L172.931 178.377L172.926 178.389L172.922 178.401L173.873 178.711ZM173.053 181.411V182.411H173.774L174.002 181.727L173.053 181.411ZM172.953 181.411L171.999 181.708L172.217 182.411H172.953V181.411ZM172.133 178.711L173.078 178.381L173.075 178.374L173.072 178.367L172.133 178.711ZM169.773 172.271L170.712 171.927L170.472 171.271H169.773V172.271ZM165.913 172.271V171.271H164.913V172.271H165.913ZM165.913 188.171H169.113V186.171H165.913V188.171ZM170.113 187.171V182.071H168.113V187.171H170.113ZM170.113 182.071C170.113 180.514 169.823 178.222 169.646 176.788L167.661 177.033C167.844 178.52 168.113 180.667 168.113 182.071H170.113ZM168.653 177.911H168.733V175.911H168.653V177.911ZM167.786 177.23L168.986 180.79L170.881 180.151L169.681 176.591L167.786 177.23ZM168.996 180.819L171.016 186.259L172.891 185.563L170.871 180.123L168.996 180.819ZM171.953 186.911H173.913V184.911H171.953V186.911ZM174.852 186.256L176.852 180.816L174.975 180.126L172.975 185.566L174.852 186.256ZM176.858 180.8L178.098 177.24L176.209 176.582L174.969 180.142L176.858 180.8ZM177.153 177.911H177.253V175.911H177.153V177.911ZM176.263 176.775C176.064 178.223 175.773 180.511 175.773 182.071H177.773C177.773 180.671 178.042 178.519 178.244 177.046L176.263 176.775ZM175.773 182.071V187.171H177.773V182.071H175.773ZM176.773 188.171H180.033V186.171H176.773V188.171ZM181.033 187.171V172.271H179.033V187.171H181.033ZM180.033 171.271H176.153V173.271H180.033V171.271ZM175.211 171.937L172.931 178.377L174.816 179.044L177.096 172.604L175.211 171.937ZM172.922 178.401C172.777 178.849 172.642 179.316 172.511 179.766C172.378 180.222 172.248 180.665 172.105 181.094L174.002 181.727C174.159 181.256 174.299 180.779 174.431 180.325C174.565 179.865 174.69 179.432 174.824 179.02L172.922 178.401ZM173.053 180.411H172.953V182.411H173.053V180.411ZM173.908 181.114C173.653 180.294 173.381 179.25 173.078 178.381L171.189 179.04C171.486 179.891 171.693 180.727 171.999 181.708L173.908 181.114ZM173.072 178.367L170.712 171.927L168.834 172.615L171.194 179.055L173.072 178.367ZM169.773 171.271H165.913V173.271H169.773V171.271ZM164.913 172.271V187.171H166.913V172.271H164.913ZM183.452 187.171H182.452V188.171H183.452V187.171ZM187.032 187.171V188.171H188.032V187.171H187.032ZM187.032 181.491V180.491H186.032V181.491H187.032ZM192.112 181.491V182.491H193.112V181.491H192.112ZM192.112 178.511H193.112V177.511H192.112V178.511ZM187.032 178.511H186.032V179.511H187.032V178.511ZM187.032 175.251V174.251H186.032V175.251H187.032ZM192.952 175.251V176.251H193.952V175.251H192.952ZM192.952 172.271H193.952V171.271H192.952V172.271ZM183.452 172.271V171.271H182.452V172.271H183.452ZM183.452 188.171H187.032V186.171H183.452V188.171ZM188.032 187.171V181.491H186.032V187.171H188.032ZM187.032 182.491H192.112V180.491H187.032V182.491ZM193.112 181.491V178.511H191.112V181.491H193.112ZM192.112 177.511H187.032V179.511H192.112V177.511ZM188.032 178.511V175.251H186.032V178.511H188.032ZM187.032 176.251H192.952V174.251H187.032V176.251ZM193.952 175.251V172.271H191.952V175.251H193.952ZM192.952 171.271H183.452V173.271H192.952V171.271ZM182.452 172.271V187.171H184.452V172.271H182.452Z" fill="white"/>
<path fill-rule="evenodd" clip-rule="evenodd" d="M35.0662 30.2743L41.1209 24.2021C41.2403 24.0823 41.3351 23.9402 41.3998 23.7837C41.4644 23.6272 41.4977 23.4595 41.4978 23.2902C41.4978 23.1208 41.4646 22.9531 41.4 22.7966C41.3355 22.6401 41.2408 22.4978 41.1214 22.378C41.002 22.2582 40.8603 22.1632 40.7042 22.0983C40.5482 22.0335 40.381 22 40.2121 22C40.0432 22 39.876 22.0333 39.7199 22.098C39.5639 22.1628 39.4221 22.2578 39.3026 22.3775L33.248 28.4508L27.1923 22.3775C26.9484 22.149 26.6255 22.0245 26.2918 22.0303C25.9581 22.036 25.6397 22.1716 25.4038 22.4083C25.1679 22.6451 25.0329 22.9645 25.0273 23.2992C25.0218 23.6338 25.1461 23.9576 25.3741 24.2021L31.4298 30.2743L25.3741 36.3464C25.1951 36.5272 25.0734 36.7569 25.0243 37.0069C24.9752 37.2568 25.0009 37.5157 25.0981 37.751C25.1953 37.9863 25.3597 38.1875 25.5707 38.3294C25.7817 38.4712 26.0297 38.5473 26.2837 38.5482C26.6126 38.5482 26.9416 38.4224 27.1923 38.171L33.248 32.0977L39.3026 38.171C39.4219 38.291 39.5636 38.3862 39.7196 38.4511C39.8756 38.5161 40.0428 38.5495 40.2117 38.5495C40.3807 38.5495 40.5479 38.5161 40.7039 38.4511C40.8599 38.3862 41.0016 38.291 41.1209 38.171C41.2404 38.0512 41.3352 37.909 41.3999 37.7525C41.4646 37.596 41.4979 37.4282 41.4979 37.2587C41.4979 37.0893 41.4646 36.9215 41.3999 36.7649C41.3352 36.6084 41.2404 36.4662 41.1209 36.3464L35.0662 30.2743Z" fill="black"/>
<path d="M126.92 231H129.56V224.82C129.56 223.42 129.34 221.36 129.18 219.96H129.26L130.46 223.44L132.74 229.68H134.44L136.72 223.44L137.94 219.96H138.04C137.88 221.36 137.64 223.42 137.64 224.82V231H140.34V216.2H137.06L134.6 223.14C134.3 224.06 134.04 225.02 133.7 225.98H133.62C133.3 225.02 133.04 224.06 132.7 223.14L130.18 216.2H126.92V231ZM143.97 231H146.61V224.82C146.61 223.42 146.39 221.36 146.23 219.96H146.31L147.51 223.44L149.79 229.68H151.49L153.77 223.44L154.99 219.96H155.09C154.93 221.36 154.69 223.42 154.69 224.82V231H157.39V216.2H154.11L151.65 223.14C151.35 224.06 151.09 225.02 150.75 225.98H150.67C150.35 225.02 150.09 224.06 149.75 223.14L147.23 216.2H143.97V231ZM161.021 231H163.981V225H169.241V222.54H163.981V218.66H170.141V216.2H161.021V231Z" fill="black"/>
</svg>
