<svg width="70" height="68" viewBox="0 0 70 68" fill="none" xmlns="http://www.w3.org/2000/svg">
<path fill-rule="evenodd" clip-rule="evenodd" d="M24.3844 17.8154C22.7587 17.8154 21.2849 19.2269 21.2849 21.1494C21.2849 22.4587 21.5668 23.0575 21.8163 23.3758C22.0833 23.7165 22.5325 24.0192 23.4167 24.3331L33.9189 27.9816C35.0888 28.3962 36.3574 29.0177 37.2944 30.213C38.2496 31.4315 38.6579 32.9815 38.6579 34.8498C38.6579 38.7617 35.5996 42.0908 31.6514 42.0908H25.1137C20.7427 42.0908 17.3779 38.4167 17.3779 34.0684C17.3779 32.9896 18.2525 32.115 19.3314 32.115C20.4103 32.115 21.2849 32.9896 21.2849 34.0684C21.2849 36.4402 23.0774 38.1838 25.1137 38.1838H31.6514C33.2772 38.1838 34.751 36.7724 34.751 34.8498C34.751 33.5405 34.4691 32.9417 34.2196 32.6234C33.9525 32.2827 33.5034 31.9801 32.6192 31.6661L22.1169 28.0176C20.9471 27.603 19.6785 26.9815 18.7414 25.7862C17.7863 24.5677 17.3779 23.0178 17.3779 21.1494C17.3779 17.2375 20.4363 13.9084 24.3844 13.9084H30.9221C35.2932 13.9084 38.6579 17.5825 38.6579 21.9308C38.6579 23.0097 37.7833 23.8843 36.7044 23.8843C35.6256 23.8843 34.751 23.0097 34.751 21.9308C34.751 19.559 32.9585 17.8154 30.9221 17.8154H24.3844Z" fill="#3A3A3A"/>
<path fill-rule="evenodd" clip-rule="evenodd" d="M27.9999 10.4187C29.0788 10.4187 29.9534 11.2933 29.9534 12.3722V43.628C29.9534 44.7069 29.0788 45.5815 27.9999 45.5815C26.921 45.5815 26.0464 44.7069 26.0464 43.628V12.3722C26.0464 11.2933 26.921 10.4187 27.9999 10.4187Z" fill="#3A3A3A"/>
<path fill-rule="evenodd" clip-rule="evenodd" d="M28 3.90698C14.6938 3.90698 3.90698 14.6938 3.90698 28C3.90698 41.3062 14.6938 52.093 28 52.093C41.3062 52.093 52.093 41.3062 52.093 28C52.093 14.6938 41.3062 3.90698 28 3.90698ZM0 28C0 12.536 12.536 0 28 0C43.464 0 56 12.536 56 28C56 43.464 43.464 56 28 56C12.536 56 0 43.464 0 28Z" fill="#3A3A3A"/>
<path d="M23.6458 61.3333H26.8458V56.2333C26.8458 54.7533 26.5658 52.5333 26.3858 51.0733H26.4658L27.6658 54.6333L29.6858 60.0733H31.6458L33.6458 54.6333L34.8858 51.0733H34.9858C34.7858 52.5333 34.5058 54.7533 34.5058 56.2333V61.3333H37.7658V46.4333H33.8858L31.6058 52.8733C31.3258 53.7333 31.0858 54.6733 30.7858 55.5733H30.6858C30.4058 54.6733 30.1658 53.7333 29.8658 52.8733L27.5058 46.4333H23.6458V61.3333ZM41.1848 61.3333H44.3848V56.2333C44.3848 54.7533 44.1048 52.5333 43.9248 51.0733H44.0048L45.2048 54.6333L47.2248 60.0733H49.1848L51.1848 54.6333L52.4248 51.0733H52.5248C52.3248 52.5333 52.0448 54.7533 52.0448 56.2333V61.3333H55.3048V46.4333H51.4248L49.1448 52.8733C48.8648 53.7333 48.6248 54.6733 48.3248 55.5733H48.2248C47.9448 54.6733 47.7048 53.7333 47.4048 52.8733L45.0448 46.4333H41.1848V61.3333ZM58.7239 61.3333H62.3039V55.6533H67.3839V52.6733H62.3039V49.4133H68.2239V46.4333H58.7239V61.3333Z" fill="#4276F2"/>
<path d="M23.6458 61.3333H22.6458V62.3333H23.6458V61.3333ZM26.8458 61.3333V62.3333H27.8458V61.3333H26.8458ZM26.3858 51.0733V50.0733H25.2549L25.3933 51.1956L26.3858 51.0733ZM26.4658 51.0733L27.4134 50.7538L27.184 50.0733H26.4658V51.0733ZM27.6658 54.6333L26.7182 54.9527L26.723 54.9671L26.7283 54.9814L27.6658 54.6333ZM29.6858 60.0733L28.7483 60.4214L28.9904 61.0733H29.6858V60.0733ZM31.6458 60.0733V61.0733H32.3436L32.5844 60.4183L31.6458 60.0733ZM33.6458 54.6333L34.5844 54.9783L34.5873 54.9703L34.5901 54.9622L33.6458 54.6333ZM34.8858 51.0733V50.0733H34.1752L33.9414 50.7443L34.8858 51.0733ZM34.9858 51.0733L35.9765 51.209L36.1321 50.0733H34.9858V51.0733ZM34.5058 61.3333H33.5058V62.3333H34.5058V61.3333ZM37.7658 61.3333V62.3333H38.7658V61.3333H37.7658ZM37.7658 46.4333H38.7658V45.4333H37.7658V46.4333ZM33.8858 46.4333V45.4333H33.179L32.9431 46.0995L33.8858 46.4333ZM31.6058 52.8733L30.6631 52.5395L30.6589 52.5515L30.6549 52.5637L31.6058 52.8733ZM30.7858 55.5733V56.5733H31.5065L31.7345 55.8895L30.7858 55.5733ZM30.6858 55.5733L29.7309 55.8703L29.9496 56.5733H30.6858V55.5733ZM29.8658 52.8733L30.81 52.5439L30.8074 52.5365L30.8047 52.5292L29.8658 52.8733ZM27.5058 46.4333L28.4447 46.0892L28.2044 45.4333H27.5058V46.4333ZM23.6458 46.4333V45.4333H22.6458V46.4333H23.6458ZM23.6458 62.3333H26.8458V60.3333H23.6458V62.3333ZM27.8458 61.3333V56.2333H25.8458V61.3333H27.8458ZM27.8458 56.2333C27.8458 54.677 27.555 52.3842 27.3783 50.9509L25.3933 51.1956C25.5766 52.6823 25.8458 54.8295 25.8458 56.2333H27.8458ZM26.3858 52.0733H26.4658V50.0733H26.3858V52.0733ZM25.5182 51.3927L26.7182 54.9527L28.6134 54.3138L27.4134 50.7538L25.5182 51.3927ZM26.7283 54.9814L28.7483 60.4214L30.6232 59.7252L28.6032 54.2852L26.7283 54.9814ZM29.6858 61.0733H31.6458V59.0733H29.6858V61.0733ZM32.5844 60.4183L34.5844 54.9783L32.7072 54.2882L30.7072 59.7282L32.5844 60.4183ZM34.5901 54.9622L35.8301 51.4022L33.9414 50.7443L32.7014 54.3043L34.5901 54.9622ZM34.8858 52.0733H34.9858V50.0733H34.8858V52.0733ZM33.995 50.9375C33.7967 52.3852 33.5058 54.6734 33.5058 56.2333H35.5058C35.5058 54.8331 35.7748 52.6813 35.9765 51.209L33.995 50.9375ZM33.5058 56.2333V61.3333H35.5058V56.2333H33.5058ZM34.5058 62.3333H37.7658V60.3333H34.5058V62.3333ZM38.7658 61.3333V46.4333H36.7658V61.3333H38.7658ZM37.7658 45.4333H33.8858V47.4333H37.7658V45.4333ZM32.9431 46.0995L30.6631 52.5395L32.5484 53.207L34.8284 46.767L32.9431 46.0995ZM30.6549 52.5637C30.509 53.0118 30.3742 53.4787 30.2432 53.9287C30.1103 54.3848 29.9802 54.8276 29.8371 55.257L31.7345 55.8895C31.8913 55.4189 32.0312 54.9417 32.1634 54.4878C32.2974 54.0278 32.4226 53.5947 32.5567 53.1828L30.6549 52.5637ZM30.7858 54.5733H30.6858V56.5733H30.7858V54.5733ZM31.6406 55.2762C31.3857 54.4568 31.1132 53.413 30.81 52.5439L28.9216 53.2026C29.2184 54.0535 29.4259 54.8897 29.7309 55.8703L31.6406 55.2762ZM30.8047 52.5292L28.4447 46.0892L26.5668 46.7773L28.9268 53.2173L30.8047 52.5292ZM27.5058 45.4333H23.6458V47.4333H27.5058V45.4333ZM22.6458 46.4333V61.3333H24.6458V46.4333H22.6458ZM41.1848 61.3333H40.1848V62.3333H41.1848V61.3333ZM44.3848 61.3333V62.3333H45.3848V61.3333H44.3848ZM43.9248 51.0733V50.0733H42.794L42.9324 51.1956L43.9248 51.0733ZM44.0048 51.0733L44.9525 50.7538L44.723 50.0733H44.0048V51.0733ZM45.2048 54.6333L44.2572 54.9527L44.2621 54.9671L44.2674 54.9814L45.2048 54.6333ZM47.2248 60.0733L46.2874 60.4214L46.5295 61.0733H47.2248V60.0733ZM49.1848 60.0733V61.0733H49.8826L50.1234 60.4183L49.1848 60.0733ZM51.1848 54.6333L52.1234 54.9783L52.1264 54.9703L52.1292 54.9622L51.1848 54.6333ZM52.4248 51.0733V50.0733H51.7142L51.4805 50.7443L52.4248 51.0733ZM52.5248 51.0733L53.5156 51.209L53.6712 50.0733H52.5248V51.0733ZM52.0448 61.3333H51.0448V62.3333H52.0448V61.3333ZM55.3048 61.3333V62.3333H56.3048V61.3333H55.3048ZM55.3048 46.4333H56.3048V45.4333H55.3048V46.4333ZM51.4248 46.4333V45.4333H50.7181L50.4822 46.0995L51.4248 46.4333ZM49.1448 52.8733L48.2022 52.5395L48.1979 52.5515L48.194 52.5637L49.1448 52.8733ZM48.3248 55.5733V56.5733H49.0456L49.2735 55.8895L48.3248 55.5733ZM48.2248 55.5733L47.27 55.8703L47.4887 56.5733H48.2248V55.5733ZM47.4048 52.8733L48.349 52.5439L48.3465 52.5365L48.3438 52.5292L47.4048 52.8733ZM45.0448 46.4333L45.9838 46.0892L45.7434 45.4333H45.0448V46.4333ZM41.1848 46.4333V45.4333H40.1848V46.4333H41.1848ZM41.1848 62.3333H44.3848V60.3333H41.1848V62.3333ZM45.3848 61.3333V56.2333H43.3848V61.3333H45.3848ZM45.3848 56.2333C45.3848 54.677 45.094 52.3842 44.9173 50.9509L42.9324 51.1956C43.1156 52.6823 43.3848 54.8295 43.3848 56.2333H45.3848ZM43.9248 52.0733H44.0048V50.0733H43.9248V52.0733ZM43.0572 51.3927L44.2572 54.9527L46.1525 54.3138L44.9525 50.7538L43.0572 51.3927ZM44.2674 54.9814L46.2874 60.4214L48.1623 59.7252L46.1423 54.2852L44.2674 54.9814ZM47.2248 61.0733H49.1848V59.0733H47.2248V61.0733ZM50.1234 60.4183L52.1234 54.9783L50.2463 54.2882L48.2463 59.7282L50.1234 60.4183ZM52.1292 54.9622L53.3692 51.4022L51.4805 50.7443L50.2405 54.3043L52.1292 54.9622ZM52.4248 52.0733H52.5248V50.0733H52.4248V52.0733ZM51.5341 50.9375C51.3358 52.3852 51.0448 54.6734 51.0448 56.2333H53.0448C53.0448 54.8331 53.3139 52.6813 53.5156 51.209L51.5341 50.9375ZM51.0448 56.2333V61.3333H53.0448V56.2333H51.0448ZM52.0448 62.3333H55.3048V60.3333H52.0448V62.3333ZM56.3048 61.3333V46.4333H54.3048V61.3333H56.3048ZM55.3048 45.4333H51.4248V47.4333H55.3048V45.4333ZM50.4822 46.0995L48.2022 52.5395L50.0875 53.207L52.3675 46.767L50.4822 46.0995ZM48.194 52.5637C48.0481 53.0118 47.9132 53.4787 47.7822 53.9287C47.6494 54.3848 47.5193 54.8276 47.3762 55.257L49.2735 55.8895C49.4304 55.4189 49.5703 54.9417 49.7025 54.4878C49.8364 54.0278 49.9616 53.5947 50.0957 53.1828L48.194 52.5637ZM48.3248 54.5733H48.2248V56.5733H48.3248V54.5733ZM49.1797 55.2762C48.9248 54.4568 48.6522 53.413 48.349 52.5439L46.4606 53.2026C46.7575 54.0535 46.9649 54.8897 47.27 55.8703L49.1797 55.2762ZM48.3438 52.5292L45.9838 46.0892L44.1059 46.7773L46.4659 53.2173L48.3438 52.5292ZM45.0448 45.4333H41.1848V47.4333H45.0448V45.4333ZM40.1848 46.4333V61.3333H42.1848V46.4333H40.1848ZM58.7239 61.3333H57.7239V62.3333H58.7239V61.3333ZM62.3039 61.3333V62.3333H63.3039V61.3333H62.3039ZM62.3039 55.6533V54.6533H61.3039V55.6533H62.3039ZM67.3839 55.6533V56.6533H68.3839V55.6533H67.3839ZM67.3839 52.6733H68.3839V51.6733H67.3839V52.6733ZM62.3039 52.6733H61.3039V53.6733H62.3039V52.6733ZM62.3039 49.4133V48.4133H61.3039V49.4133H62.3039ZM68.2239 49.4133V50.4133H69.2239V49.4133H68.2239ZM68.2239 46.4333H69.2239V45.4333H68.2239V46.4333ZM58.7239 46.4333V45.4333H57.7239V46.4333H58.7239ZM58.7239 62.3333H62.3039V60.3333H58.7239V62.3333ZM63.3039 61.3333V55.6533H61.3039V61.3333H63.3039ZM62.3039 56.6533H67.3839V54.6533H62.3039V56.6533ZM68.3839 55.6533V52.6733H66.3839V55.6533H68.3839ZM67.3839 51.6733H62.3039V53.6733H67.3839V51.6733ZM63.3039 52.6733V49.4133H61.3039V52.6733H63.3039ZM62.3039 50.4133H68.2239V48.4133H62.3039V50.4133ZM69.2239 49.4133V46.4333H67.2239V49.4133H69.2239ZM68.2239 45.4333H58.7239V47.4333H68.2239V45.4333ZM57.7239 46.4333V61.3333H59.7239V46.4333H57.7239Z" fill="white"/>
</svg>
