<svg width="59" height="60" viewBox="0 0 59 60" fill="none" xmlns="http://www.w3.org/2000/svg">
<rect opacity="0.5" x="0.0117188" y="33.8259" width="46.1334" height="37" rx="5" transform="rotate(-46.0825 0.0117188 33.8259)" fill="#354EF2"/>
<path fill-rule="evenodd" clip-rule="evenodd" d="M40.9872 8.92722C41.7501 9.69021 41.7501 10.9273 40.9872 11.6902L9.86167 42.8201C9.09878 43.5831 7.8619 43.5831 7.09902 42.8201C6.33613 42.0571 6.33613 40.82 7.09902 40.057L38.2246 8.92722C38.9875 8.16423 40.2244 8.16423 40.9872 8.92722Z" fill="#3A3A3A"/>
<path fill-rule="evenodd" clip-rule="evenodd" d="M31.6664 43.1828C32.4293 43.9458 32.4293 45.1829 31.6665 45.9459L28.5409 49.0719C27.778 49.8349 26.5411 49.8349 25.7782 49.0719C25.0153 48.3089 25.0153 47.0718 25.7782 46.3088L28.9038 43.1828C29.6667 42.4198 30.9036 42.4198 31.6664 43.1828Z" fill="#3A3A3A"/>
<path fill-rule="evenodd" clip-rule="evenodd" d="M41.7762 33.0744C42.5391 33.8374 42.5391 35.0745 41.7762 35.8375L35.5511 42.0634C34.7882 42.8264 33.5514 42.8264 32.7885 42.0634C32.0256 41.3004 32.0256 40.0634 32.7885 39.3004L39.0136 33.0744C39.7765 32.3115 41.0134 32.3115 41.7762 33.0744Z" fill="#3A3A3A"/>
<path fill-rule="evenodd" clip-rule="evenodd" d="M31.8273 7.24082C30.6349 7.24834 29.0723 8.05784 26.3004 10.8301L9.00556 28.1273C6.21845 30.9148 5.41263 32.4755 5.40701 33.6616C5.40143 34.8382 6.18202 36.373 8.92742 39.1188L21.7163 51.9093C24.4572 54.6507 25.9987 55.4279 27.1794 55.4205C28.3718 55.413 29.9343 54.6035 32.7062 51.8312L50.001 34.5339C52.7729 31.7617 53.5823 30.1989 53.5899 29.0064C53.5973 27.8256 52.8201 26.2839 50.0792 23.5425L37.2904 10.752C34.5494 8.01065 33.0079 7.23337 31.8273 7.24082ZM31.8026 3.33338C34.7504 3.31478 37.3242 5.25973 40.053 7.98893L52.8418 20.7795C55.5707 23.5087 57.5154 26.0829 57.4968 29.031C57.4782 31.9674 55.5137 34.5466 52.7637 37.297L35.4688 54.5942C32.7188 57.3446 30.14 59.3094 27.204 59.3279C24.2563 59.3465 21.6824 57.4016 18.9536 54.6724L6.16477 41.8818C3.44041 39.1571 1.48612 36.589 1.50007 33.6431C1.51399 30.7068 3.48212 28.1255 6.24291 25.3643L23.5378 8.06708C26.2878 5.31674 28.8666 3.35191 31.8026 3.33338Z" fill="#3A3A3A"/>
<path fill-rule="evenodd" clip-rule="evenodd" d="M1.5 57.3795C1.5 56.3005 2.37461 55.4258 3.45349 55.4258H55.5465C56.6254 55.4258 57.5 56.3005 57.5 57.3795C57.5 58.4586 56.6254 59.3333 55.5465 59.3333H3.45349C2.37461 59.3333 1.5 58.4586 1.5 57.3795Z" fill="#3A3A3A"/>
</svg>
