<svg width="55" height="55" viewBox="0 0 55 55" fill="none" xmlns="http://www.w3.org/2000/svg">
<path fill-rule="evenodd" clip-rule="evenodd" d="M24.8395 20.4395C23.9517 20.4395 23.0489 21.2437 23.0489 22.4348C23.0489 23.3368 23.2424 23.662 23.3395 23.7856C23.4546 23.9322 23.6849 24.1149 24.3008 24.3347L32.0062 27.0226C32.9077 27.3435 33.9378 27.8471 34.7072 28.8325C35.4937 29.8397 35.8139 31.0959 35.8139 32.5395C35.8139 35.6801 33.3832 38.372 30.186 38.372H25.3768C21.8842 38.372 19.186 35.4365 19.186 31.9767C19.186 30.9171 20.045 30.0581 21.1046 30.0581C22.1643 30.0581 23.0232 30.9171 23.0232 31.9767C23.0232 33.4797 24.1624 34.5348 25.3768 34.5348H30.186C31.0818 34.5348 31.9767 33.7478 31.9767 32.5395C31.9767 31.6552 31.7853 31.3254 31.6829 31.1942C31.5638 31.0416 31.3287 30.8552 30.7249 30.6397L23.0194 27.9517C22.13 27.6351 21.0951 27.1405 20.3216 26.1556C19.5297 25.1472 19.2116 23.8864 19.2116 22.4348C19.2116 19.3283 21.6343 16.6023 24.8395 16.6023H29.6488C33.1414 16.6023 35.8395 19.5379 35.8395 22.9976C35.8395 24.0573 34.9806 24.9162 33.9209 24.9162C32.8613 24.9162 32.0023 24.0573 32.0023 22.9976C32.0023 21.4946 30.8632 20.4395 29.6488 20.4395H24.8395Z" fill="#3A3A3A"/>
<path fill-rule="evenodd" clip-rule="evenodd" d="M27.4997 14.0698C28.5593 14.0698 29.4183 14.9288 29.4183 15.9884V39.0117C29.4183 40.0713 28.5593 40.9303 27.4997 40.9303C26.44 40.9303 25.5811 40.0713 25.5811 39.0117V15.9884C25.5811 14.9288 26.44 14.0698 27.4997 14.0698Z" fill="#3A3A3A"/>
<path fill-rule="evenodd" clip-rule="evenodd" d="M27.5 3.83721C14.4387 3.83721 3.83721 14.4387 3.83721 27.5C3.83721 40.5613 14.4387 51.1628 27.5 51.1628C40.5613 51.1628 51.1628 40.5613 51.1628 27.5C51.1628 26.4404 52.0218 25.5814 53.0814 25.5814C54.141 25.5814 55 26.4404 55 27.5C55 42.6805 42.6805 55 27.5 55C12.3195 55 0 42.6805 0 27.5C0 12.3195 12.3195 0 27.5 0C28.5596 0 29.4186 0.858989 29.4186 1.9186C29.4186 2.97822 28.5596 3.83721 27.5 3.83721Z" fill="#3A3A3A"/>
<path fill-rule="evenodd" clip-rule="evenodd" d="M40.9302 1.9186C40.9302 0.858989 41.7892 0 42.8488 0H53.0813C54.141 0 54.9999 0.858989 54.9999 1.9186V12.1512C54.9999 13.2108 54.141 14.0698 53.0813 14.0698C52.0217 14.0698 51.1627 13.2108 51.1627 12.1512V3.83721H42.8488C41.7892 3.83721 40.9302 2.97822 40.9302 1.9186Z" fill="#3A3A3A"/>
<path fill-rule="evenodd" clip-rule="evenodd" d="M54.438 0.561946C55.1873 1.31121 55.1873 2.526 54.438 3.27526L41.6473 16.066C40.8981 16.8152 39.6833 16.8152 38.934 16.066C38.1848 15.3167 38.1848 14.1019 38.934 13.3526L51.7247 0.561946C52.474 -0.187315 53.6888 -0.187315 54.438 0.561946Z" fill="#3A3A3A"/>
</svg>
